<svg width="20" height="20" viewBox="0 0 20 20" fill="none" xmlns="http://www.w3.org/2000/svg">
<path d="M9.33331 0.833984C14.0277 0.833984 17.8333 4.63956 17.8333 9.33398C17.8333 14.0284 14.0277 17.834 9.33331 17.834C4.63889 17.834 0.833313 14.0284 0.833313 9.33398C0.833313 4.63956 4.63889 0.833984 9.33331 0.833984ZM14.0228 6.71289C13.744 6.44236 13.3088 6.43184 13.0179 6.67676L12.9622 6.72852L9.33331 10.4678L5.70538 6.72852C5.41695 6.43129 4.9421 6.42453 4.64484 6.71289C4.3476 7.00133 4.33984 7.47618 4.62823 7.77344L8.58429 11.8506L8.66437 11.9248C9.05079 12.2485 9.61478 12.2483 10.0013 11.9248L10.0814 11.8506L14.0374 7.77344L14.0882 7.71582C14.324 7.41786 14.301 6.98341 14.0228 6.71289Z" fill="#13A590"/>
</svg>
