<svg width="28" height="28" viewBox="0 0 28 28" fill="none" xmlns="http://www.w3.org/2000/svg">
<path fill-rule="evenodd" clip-rule="evenodd" d="M1.45898 13.9997C1.45898 7.0731 7.07408 1.45801 14.0007 1.45801C20.9272 1.45801 26.5423 7.0731 26.5423 13.9997C26.5423 20.9262 20.9272 26.5413 14.0007 26.5413C7.07408 26.5413 1.45898 20.9262 1.45898 13.9997ZM19.286 11.0476C19.6277 11.3893 19.6277 11.9434 19.286 12.2851L12.7892 18.7819C12.1384 19.4326 11.0551 19.3254 10.5446 18.5597L8.60594 15.6517C8.33788 15.2496 8.44653 14.7064 8.84862 14.4383C9.25071 14.1702 9.79397 14.2789 10.062 14.681L11.8033 17.2929L18.0486 11.0476C18.3903 10.7059 18.9443 10.7059 19.286 11.0476Z" fill="#212223"/>
</svg>
