<svg width="245" height="63" viewBox="0 0 245 63" fill="none" xmlns="http://www.w3.org/2000/svg">
<path d="M77.0412 20.8828H68.8673V34.7947C68.8673 35.7076 68.8868 36.5489 68.9258 37.3205C68.9648 38.0944 69.1229 38.7683 69.4001 39.3421C69.6752 39.9182 70.091 40.3725 70.6433 40.7094C71.1956 41.0463 71.9861 41.2137 73.0128 41.2137C73.6842 41.2137 74.3751 41.1355 75.0855 40.9768C75.7959 40.8181 76.4673 40.5812 77.0997 40.2638L77.2773 44.4852C76.4868 44.8417 75.6074 45.0982 74.6415 45.2569C73.6733 45.4155 72.755 45.4938 71.8865 45.4938C70.2275 45.4938 68.9041 45.2764 67.9187 44.8395C66.931 44.4047 66.16 43.7896 65.6077 42.9962C65.0554 42.2049 64.6894 41.2224 64.5118 40.0529C64.3342 38.8835 64.2454 37.5857 64.2454 36.1598V20.8806H58.2026V16.957H64.2454V9.04895H68.8651V16.957H77.0391V20.8806L77.0412 20.8828Z" fill="#333232"/>
<path d="M81.1819 23.6527C81.1819 22.3927 81.1432 21.2105 81.0636 20.106C80.984 19.0038 80.9453 17.9988 80.9453 17.0911H85.299C85.299 17.841 85.3184 18.5888 85.3571 19.3366C85.3958 20.0866 85.4152 20.8539 85.4152 21.6427H85.5335C85.8475 20.9727 86.2885 20.3222 86.8564 19.6932C87.4243 19.0643 88.1018 18.5024 88.887 18.0096C89.6721 17.5168 90.554 17.1235 91.5349 16.8274C92.5136 16.5313 93.5741 16.3843 94.712 16.3843C95.0261 16.3843 95.338 16.4038 95.6542 16.4427C95.9682 16.4816 96.2801 16.5616 96.5963 16.6783L96.3016 21.3488C95.5165 21.1132 94.6927 20.9943 93.8301 20.9943C91.0058 20.9943 88.9558 21.9107 87.6824 23.7435C86.4068 25.5762 85.7701 28.0876 85.7701 31.2798V44.7575H81.1819V23.6549V23.6527Z" fill="#333232"/>
<path d="M122.736 39.7594C121.076 41.8903 119.257 43.3786 117.282 44.2266C115.305 45.0746 113.014 45.4986 110.404 45.4986C108.23 45.4986 106.272 45.1135 104.534 44.3456C102.793 43.5755 101.321 42.5414 100.116 41.2391C98.9105 39.9368 97.9805 38.3987 97.3302 36.6248C96.6777 34.8488 96.3525 32.9559 96.3525 30.9441C96.3525 28.8132 96.708 26.8533 97.4191 25.0578C98.1301 23.2644 99.1186 21.7242 100.382 20.4435C101.646 19.1628 103.148 18.1656 104.889 17.456C106.628 16.7464 108.524 16.3917 110.582 16.3917C112.517 16.3917 114.297 16.7162 115.916 17.3673C117.536 18.0185 118.929 18.9638 120.096 20.2077C121.262 21.4494 122.162 22.968 122.792 24.7636C123.425 26.5591 123.742 28.5991 123.742 30.8878V32.3675H101.332C101.41 33.5508 101.696 34.6844 102.19 35.7703C102.684 36.8563 103.326 37.8017 104.117 38.6107C104.909 39.4198 105.836 40.0601 106.903 40.5339C107.969 41.0076 109.136 41.2434 110.402 41.2434C112.418 41.2434 114.117 40.8887 115.5 40.1791C116.883 39.4696 118.127 38.4247 119.235 37.0423L122.734 39.7638L122.736 39.7594ZM118.765 28.4584C118.685 26.0918 117.915 24.1989 116.452 22.7777C114.989 21.3586 112.973 20.6468 110.404 20.6468C107.835 20.6468 105.758 21.3564 104.178 22.7777C102.598 24.1968 101.648 26.0918 101.332 28.4584H118.763H118.765Z" fill="#333232"/>
<path d="M127.402 23.6589C127.402 22.3991 127.363 21.217 127.283 20.1128C127.203 19.0107 127.164 18.0059 127.164 17.0983H131.556C131.556 17.8481 131.576 18.5958 131.615 19.3435C131.654 20.0934 131.673 20.8605 131.673 21.6492H131.793C132.11 20.9793 132.555 20.3289 133.128 19.7001C133.7 19.0712 134.384 18.5094 135.176 18.0167C135.968 17.524 136.858 17.1307 137.848 16.8347C138.838 16.5386 139.905 16.3917 141.053 16.3917C142.872 16.3917 144.446 16.6683 145.772 17.2193C147.098 17.7725 148.196 18.5396 149.066 19.525C149.936 20.5104 150.579 21.7033 150.995 23.1014C151.41 24.4995 151.618 26.0273 151.618 27.6826V44.7627H146.989V28.1558C146.989 25.8307 146.475 24.0003 145.446 22.6584C144.417 21.3186 142.813 20.6487 140.639 20.6487C139.135 20.6487 137.839 20.9059 136.752 21.418C135.662 21.9302 134.773 22.6584 134.08 23.6049C133.388 24.5514 132.874 25.6729 132.537 26.9738C132.201 28.2747 132.032 29.7117 132.032 31.2892V44.7648H127.402V23.6654V23.6589Z" fill="#333232"/>
<path d="M179.268 39.8671H179.148C178.277 41.4462 176.9 42.7806 175.019 43.8659C173.138 44.9512 170.951 45.4949 168.455 45.4949C166.514 45.4949 164.694 45.1288 162.991 44.3988C161.288 43.6688 159.813 42.6507 158.564 41.3488C157.317 40.0447 156.336 38.5045 155.623 36.7282C154.911 34.9498 154.555 33.0153 154.555 30.9228C154.555 28.8302 154.911 26.8936 155.623 25.1173C156.336 23.341 157.326 21.7986 158.592 20.4968C159.859 19.1927 161.394 18.1767 163.197 17.4467C164.998 16.7167 166.989 16.3506 169.168 16.3506C171.188 16.3506 173.038 16.7644 174.722 17.594C176.405 18.4237 177.88 19.5891 179.148 21.0903H179.268V0H183.9V44.7887H179.268V39.8714V39.8671ZM179.268 30.9206C179.268 29.4606 179.039 28.1067 178.583 26.8633C178.127 25.6199 177.465 24.5324 176.594 23.6053C175.723 22.6781 174.682 21.9459 173.475 21.4131C172.267 20.8802 170.91 20.6137 169.407 20.6137C167.904 20.6137 166.546 20.8802 165.339 21.4131C164.131 21.9459 163.091 22.6781 162.22 23.6053C161.349 24.5346 160.684 25.6199 160.23 26.8633C159.774 28.1067 159.548 29.4606 159.548 30.9206C159.548 32.3806 159.776 33.7345 160.23 34.9779C160.684 36.2213 161.349 37.3088 162.22 38.2359C163.091 39.1652 164.129 39.8952 165.339 40.4281C166.546 40.961 167.902 41.2274 169.407 41.2274C170.912 41.2274 172.267 40.961 173.475 40.4281C174.682 39.8952 175.723 39.1652 176.594 38.2359C177.465 37.3088 178.127 36.2213 178.583 34.9779C179.037 33.7345 179.268 32.3806 179.268 30.9206Z" fill="#333232"/>
<path d="M187.812 6.29863C187.812 5.3936 188.141 4.6052 188.802 3.93561C189.463 3.26601 190.274 2.93121 191.236 2.93121C192.198 2.93121 193.008 3.26601 193.669 3.93561C194.33 4.6052 194.659 5.3936 194.659 6.29863C194.659 7.28358 194.339 8.09142 193.697 8.71997C193.056 9.34853 192.235 9.66605 191.236 9.66605C190.236 9.66605 189.413 9.35069 188.774 8.71997C188.133 8.09142 187.812 7.28358 187.812 6.29863ZM188.892 17.1094H193.577V44.7572H188.892V17.1094Z" fill="#333232"/>
<path d="M223.742 39.7594C222.096 41.8903 220.294 43.3786 218.336 44.2266C216.377 45.0746 214.106 45.4986 211.52 45.4986C209.365 45.4986 207.427 45.1135 205.702 44.3456C203.977 43.5755 202.518 42.5414 201.323 41.2391C200.129 39.9368 199.207 38.3987 198.563 36.6248C197.916 34.8488 197.594 32.9559 197.594 30.9441C197.594 28.8132 197.946 26.8533 198.651 25.0578C199.355 23.2644 200.335 21.7242 201.588 20.4435C202.84 19.1628 204.329 18.1656 206.054 17.456C207.777 16.7464 209.657 16.3917 211.696 16.3917C213.614 16.3917 215.378 16.7162 216.983 17.3673C218.588 18.0185 219.969 18.9638 221.125 20.2077C222.281 21.4494 223.172 22.968 223.798 24.7636C224.425 26.5591 224.739 28.5991 224.739 30.8878V32.3675H202.529C202.606 33.5508 202.89 34.6844 203.381 35.7703C203.871 36.8563 204.507 37.8017 205.291 38.6107C206.073 39.4198 206.995 40.0601 208.052 40.5339C209.109 41.0076 210.265 41.2434 211.52 41.2434C213.518 41.2434 215.202 40.8887 216.573 40.1791C217.943 39.4696 219.176 38.4247 220.274 37.0423L223.742 39.7638V39.7594ZM219.806 28.4584C219.726 26.0918 218.964 24.1989 217.514 22.7777C216.063 21.3586 214.065 20.6468 211.52 20.6468C208.974 20.6468 206.916 21.3564 205.349 22.7777C203.783 24.1968 202.842 26.0918 202.529 28.4584H219.804H219.806Z" fill="#333232"/>
<path d="M229.133 23.4121C229.133 22.1521 229.095 20.9699 229.015 19.8654C228.935 18.7632 228.897 17.7582 228.897 16.8505H233.25C233.25 17.6004 233.27 18.3482 233.309 19.096C233.347 19.846 233.367 20.6132 233.367 21.4021H233.485C233.799 20.7321 234.24 20.0816 234.808 19.4526C235.376 18.8237 236.053 18.2618 236.838 17.769C237.624 17.2762 238.505 16.8829 239.486 16.5868C240.467 16.2907 241.526 16.1437 242.663 16.1437C242.977 16.1437 243.289 16.1632 243.606 16.2021C243.92 16.241 244.232 16.321 244.548 16.4377L244.253 21.1082C243.468 20.8726 242.644 20.7537 241.782 20.7537C238.957 20.7537 236.907 21.6701 235.634 23.5029C234.358 25.3356 233.722 27.847 233.722 31.0392V44.5169H229.133V23.4143V23.4121Z" fill="#333232"/>
<path d="M44.2127 17.1273C39.7971 17.1273 35.8334 19.0889 33.1348 22.184L35.8205 26.376C37.6174 23.6211 40.7226 21.7961 44.2451 21.7961C49.796 21.7961 54.3089 26.3218 54.3089 31.8835C54.3089 37.4453 49.796 41.971 44.2451 41.971C40.6967 41.971 37.5698 40.12 35.7794 37.3304L35.7599 37.3001L35.7102 37.2221L29.9496 28.2248L29.5085 27.5356L27.2012 23.9332L27.1925 23.918C24.5717 19.8345 19.9961 17.123 14.802 17.123C6.68443 17.123 0.0783344 23.7425 0.0783344 31.8814C0.0783344 40.0203 6.68227 46.6398 14.802 46.6398C18.6208 46.6398 22.1044 45.1746 24.7231 42.7752V47.626H24.7101C24.7101 53.2875 20.115 57.8934 14.4669 57.8934C8.81871 57.8934 4.22363 53.2875 4.22363 47.626H0.000488281C0.000488281 55.6219 6.48982 62.1265 14.4669 62.1265C22.4439 62.1265 28.5246 56.025 28.9138 48.376H28.9311V47.6737C28.9311 47.6564 28.9311 47.6412 28.9311 47.6238V36.0256C28.9787 35.8652 29.0241 35.7027 29.0652 35.5401L31.8136 39.8296C34.4322 43.9218 39.01 46.6376 44.2127 46.6376C52.3303 46.6376 58.9364 40.0181 58.9364 31.8792C58.9364 23.7403 52.3325 17.1208 44.2127 17.1208V17.1273ZM23.2332 37.3326C21.4427 40.1222 18.3159 41.9732 14.7674 41.9732C9.21659 41.9732 4.70368 37.4497 4.70368 31.8857C4.70368 26.3218 9.21659 21.7982 14.7674 21.7982C18.3159 21.7982 21.4427 23.6493 23.2332 26.441L23.2829 26.5168C24.2603 28.0709 24.829 29.9133 24.829 31.8857C24.829 33.8581 24.269 35.6766 23.3002 37.2242C23.2786 37.2589 23.2548 37.2979 23.231 37.3326H23.2332Z" fill="#333232"/>
</svg>
