<svg width="70" height="70" viewBox="0 0 70 70" fill="none" xmlns="http://www.w3.org/2000/svg">
<path d="M67.6667 34.9997C67.6667 36.493 67.5734 37.9863 67.3634 39.433C67.0834 41.4397 66.6401 43.3763 66.0101 45.2663C64.3767 50.213 61.6234 54.623 58.0067 58.193C52.1034 64.0497 43.9601 67.6897 34.9767 67.6897C25.9934 67.6897 17.8501 64.0497 11.9467 58.193C8.35339 54.623 5.57673 50.1897 3.94339 45.2663C3.33673 43.3997 2.87006 41.4397 2.61339 39.433C2.42673 37.9863 2.31006 36.493 2.31006 34.9997C2.31006 16.963 16.9401 2.33301 34.9767 2.33301C40.9501 2.33301 46.5501 3.94301 51.3801 6.74301C52.8734 7.60634 54.2967 8.60967 55.6267 9.68301C62.9767 15.6563 67.6434 24.7797 67.6434 34.9997H67.6667Z" fill="#D2F3EE"/>
<path d="M66.0332 45.2432C64.3999 50.1898 61.6466 54.5998 58.0299 58.1698C52.1266 64.0265 43.9832 67.6665 34.9999 67.6665C26.0166 67.6665 17.8732 64.0265 11.9699 58.1698C8.37655 54.5998 5.59989 50.1665 3.96655 45.2432H66.0332Z" fill="#A0DBD2"/>
<path d="M60.0601 25.3397V6.71973H49.3501V14.6531L60.0601 25.3397Z" fill="#13A590"/>
<path d="M58.1701 27.8604L58.0301 28.0004V58.1704C52.1267 64.0271 43.9834 67.6671 35.0001 67.6671C26.0167 67.6671 17.8734 64.0271 11.9701 58.1704V28.0004L11.8301 27.8604L35.0001 4.69043L44.9401 14.6304L55.6501 25.3171L58.1701 27.8371V27.8604Z" fill="#F8F4DA"/>
<path d="M58.03 28.1864V32.923L35 9.89302L11.97 32.923V28.1864L35 5.17969L58.03 28.1864Z" fill="#D3CEC2"/>
<path d="M67.5734 39.6196L35.0001 7.04624L2.42674 39.6196L0.0700684 37.2396L35.0001 2.30957L69.9301 37.2396L67.5734 39.6196Z" fill="#13A590"/>
<path d="M46.2466 32.5029H23.73V55.0196H46.2466V32.5029Z" fill="#D2F3EE"/>
<path d="M43.8433 34.9297H26.1799V52.593H43.8433V34.9297Z" fill="#9AE2D6"/>
<path d="M35.9567 34.3701H34.0667V54.1101H35.9567V34.3701Z" fill="#D2F3EE"/>
</svg>
