<svg width="70" height="70" viewBox="0 0 70 70" fill="none" xmlns="http://www.w3.org/2000/svg">
<path d="M68.4133 34.7896C68.4133 53.573 53.1999 68.7863 34.4166 68.7863C15.6333 68.7863 0.419922 53.573 0.419922 34.7896C0.419922 16.0063 0.419922 33.7863 0.443255 33.273C0.723255 26.9496 2.72992 21.0696 6.01992 16.0763C12.1099 6.88297 22.5399 0.792969 34.4166 0.792969C53.1999 0.792969 68.4133 16.0063 68.4133 34.7896Z" fill="#D2F3EE"/>
<path d="M48.5557 14.9101H29.0257C27.2757 14.9101 25.8757 16.2867 25.8757 18.0367V18.1067C25.8757 19.8567 27.2757 21.2567 29.0257 21.2567H37.239L19.0157 39.48C17.8724 40.6234 17.8724 42.4901 19.0157 43.6567C20.159 44.8001 22.0257 44.8001 23.1924 43.6567L20.579 46.2701C19.4357 47.4134 19.4357 49.28 20.579 50.4467C21.7224 51.6134 21.909 51.31 22.6557 51.31C23.4024 51.31 24.1724 51.03 24.7324 50.4467L27.9757 47.2034C26.8324 48.3467 26.8324 50.2134 27.9757 51.38C29.119 52.5467 29.3057 52.2434 30.0524 52.2434C30.799 52.2434 30.8224 52.1734 31.1724 52.0334C31.5224 51.8934 31.849 51.66 32.129 51.38L36.3524 47.1567C35.7924 47.7167 35.489 48.4867 35.489 49.2334C35.489 49.98 35.489 49.5134 35.5124 49.63C35.5824 50.2367 35.8857 50.8434 36.3524 51.31C36.9124 51.87 37.6824 52.1734 38.429 52.1734C39.1757 52.1734 39.9457 51.8934 40.5057 51.31L51.8457 39.9701L54.6924 37.1234C57.679 34.1367 59.5457 30.2167 59.989 26.0167L48.579 14.8867L48.5557 14.9101Z" fill="#F9D387"/>
<path d="M35.4668 49.2341C35.4668 49.7941 35.6301 50.3541 35.9335 50.8441L44.3801 42.3974C44.8468 41.9541 44.8468 41.2074 44.3801 40.7641C43.9368 40.2974 43.1901 40.2974 42.7468 40.7641L36.3301 47.1807C35.7701 47.7407 35.4668 48.4874 35.4668 49.2574V49.2341Z" fill="#DDB876"/>
<path d="M20.1374 49.9597L36.3774 33.7197C36.8208 33.2764 36.8208 32.5297 36.3774 32.0864C35.9341 31.6431 35.1874 31.6431 34.7441 32.0864L23.1708 43.6597L20.5574 46.2731C19.5541 47.2764 19.4374 48.8164 20.1608 49.9597H20.1374Z" fill="#DDB876"/>
<path d="M27.0684 49.2811C27.0684 49.8411 27.2317 50.4011 27.535 50.8911L39.435 38.9911C39.9017 38.5245 39.9017 37.8011 39.435 37.3578C38.9917 36.8911 38.245 36.8911 37.8017 37.3578L27.9317 47.2278C27.3484 47.7878 27.0684 48.5345 27.0684 49.3045V49.2811Z" fill="#DDB876"/>
<path d="M50.2368 27.3946C50.5168 28.0246 50.1668 28.7712 49.5135 28.9579C48.3935 29.3079 47.2268 29.4713 46.0835 29.4713C41.7201 29.4713 37.5668 27.0679 35.4668 23.0312L37.2168 21.2812C39.1535 25.8546 44.1935 28.1412 48.8368 26.7179C49.3968 26.5546 50.0035 26.8579 50.2368 27.3946Z" fill="#DDB876"/>
<path d="M40.9967 47.2026L25.76 31.9659L24.99 31.1959C24.15 30.3559 24.7567 28.9559 25.9233 28.9559H30.9167C32.6667 28.9559 34.09 27.5326 34.09 25.7826C34.09 24.0326 34.02 24.9659 33.8567 24.5926C33.39 23.4259 32.2467 22.5859 30.9167 22.5859H11.4333L0 33.6926C0.443333 37.8926 2.31 41.8126 5.29667 44.7993L8.14333 47.6459L19.4833 58.9859C20.6267 60.1293 22.4933 60.1293 23.66 58.9859C24.8267 57.8426 23.94 58.6826 24.0567 58.5193C24.36 58.0293 24.5233 57.4693 24.5233 56.9093C24.5233 56.3493 24.2433 55.3926 23.66 54.8326L27.8833 59.0559C29.0267 60.1993 30.8933 60.1993 32.06 59.0559C33.2267 57.9126 32.34 58.7526 32.4567 58.5893C32.76 58.0993 32.9233 57.5393 32.9233 56.9793C32.9233 56.4193 32.6433 55.4626 32.06 54.9026L35.3033 58.1459C36.4467 59.2893 38.3133 59.2893 39.48 58.1459C39.62 58.0059 39.76 57.8426 39.8767 57.6793C40.6233 56.5359 40.4833 54.9959 39.48 53.9926L36.8667 51.3793C38.01 52.5226 39.8767 52.5226 41.0433 51.3793C42.1867 50.2359 41.3233 51.0759 41.44 50.9126C41.7433 50.4226 41.9067 49.8626 41.9067 49.3026C41.86 48.5326 41.58 47.7626 40.9967 47.2026Z" fill="#F9D387"/>
<path d="M24.5232 56.9548C24.5232 57.5148 24.3598 58.0748 24.0565 58.5648L15.6098 50.1182C15.1665 49.6748 15.1665 48.9282 15.6098 48.4848C16.0532 48.0415 16.7998 48.0415 17.2432 48.4848L23.6598 54.9015C24.2198 55.4382 24.5232 56.2082 24.5232 56.9782V56.9548Z" fill="#DDB876"/>
<path d="M39.8528 57.6785L23.6128 41.4385C23.1461 40.9718 23.1695 40.2485 23.6128 39.8052C24.0561 39.3618 24.8028 39.3618 25.2461 39.8052L36.8195 51.3785L39.4328 53.9918C40.4361 54.9952 40.5528 56.5352 39.8295 57.6785H39.8528Z" fill="#DDB876"/>
<path d="M41.8604 49.2786C41.8604 49.8386 41.6971 50.3986 41.3938 50.8886L25.9238 35.4186C24.8271 34.322 24.4538 32.6653 24.9904 31.1953L40.9738 47.1786C41.5571 47.7386 41.8371 48.5086 41.8371 49.2553L41.8604 49.2786Z" fill="#DDB876"/>
<path d="M32.9003 56.9804C32.9003 57.5404 32.7369 58.1004 32.4336 58.5904L20.5336 46.6904C20.0669 46.247 20.0669 45.5004 20.5336 45.057C20.9769 44.5904 21.7236 44.5904 22.1669 45.057L32.0369 54.927C32.6203 55.487 32.9003 56.257 32.9003 57.0037V56.9804Z" fill="#DDB876"/>
<path d="M33.8804 24.616L29.5171 28.9794H27.6504C28.7237 27.8127 30.9171 25.106 30.9171 22.6094C32.2471 22.6094 33.4137 23.426 33.8571 24.616H33.8804Z" fill="#DDB876"/>
<path d="M53.6186 5.25446L44.5605 14.3125L60.5152 30.2672L69.5733 21.2091L53.6186 5.25446Z" fill="#13A590"/>
<path d="M53.6166 5.25446L44.5586 14.3125L48.5679 18.3218L57.6259 9.26376L53.6166 5.25446Z" fill="#0F8473"/>
<path d="M11.4335 22.6348L0.466797 33.2748C0.746797 26.9515 2.75346 21.0715 6.04346 16.0781L11.4335 22.6115V22.6348Z" fill="#0F8473"/>
</svg>
