<svg width="51" height="51" viewBox="0 0 51 51" fill="none" xmlns="http://www.w3.org/2000/svg">
<g clip-path="url(#clip0_2482_22345)">
<path fill-rule="evenodd" clip-rule="evenodd" d="M38.1161 28.009C39.7766 24.6473 40.7291 21.4986 40.7291 18.798C40.7291 14.6434 39.0787 10.6589 36.1409 7.72116C33.2031 4.78341 29.2187 3.133 25.0641 3.133C20.9095 3.133 16.925 4.78341 13.9873 7.72116C11.0495 10.6589 9.39911 14.6434 9.39911 18.798C9.39911 21.4986 10.3547 24.6473 12.012 28.009C13.6537 31.3362 15.8781 34.6509 18.1527 37.6273C20.3103 40.4333 22.6175 43.1211 25.0641 45.6791L25.7157 44.9898C27.9213 42.6394 30.0104 40.1822 31.9755 37.6273C34.25 34.6509 36.4745 31.3362 38.1161 28.009ZM25.0641 50.1279C25.0641 50.1279 43.8621 32.3137 43.8621 18.798C43.8621 13.8124 41.8816 9.0311 38.3563 5.5058C34.831 1.98049 30.0496 0 25.0641 0C20.0786 0 15.2972 1.98049 11.7719 5.5058C8.24661 9.0311 6.26611 13.8124 6.26611 18.798C6.26611 32.3137 25.0641 50.1279 25.0641 50.1279Z" fill="#13A590"/>
<path fill-rule="evenodd" clip-rule="evenodd" d="M25.064 25.0639C26.7259 25.0639 28.3196 24.4037 29.4948 23.2286C30.6699 22.0535 31.33 20.4598 31.33 18.7979C31.33 17.1361 30.6699 15.5423 29.4948 14.3672C28.3196 13.1921 26.7259 12.5319 25.064 12.5319C23.4022 12.5319 21.8084 13.1921 20.6333 14.3672C19.4582 15.5423 18.798 17.1361 18.798 18.7979C18.798 20.4598 19.4582 22.0535 20.6333 23.2286C21.8084 24.4037 23.4022 25.0639 25.064 25.0639ZM25.064 28.1969C27.5568 28.1969 29.9475 27.2067 31.7101 25.444C33.4728 23.6813 34.463 21.2907 34.463 18.7979C34.463 16.3051 33.4728 13.9145 31.7101 12.1518C29.9475 10.3892 27.5568 9.39893 25.064 9.39893C22.5713 9.39893 20.1806 10.3892 18.4179 12.1518C16.6553 13.9145 15.665 16.3051 15.665 18.7979C15.665 21.2907 16.6553 23.6813 18.4179 25.444C20.1806 27.2067 22.5713 28.1969 25.064 28.1969Z" fill="#13A590"/>
</g>
<defs>
<clipPath id="clip0_2482_22345">
<rect width="50.1279" height="50.1279" fill="white"/>
</clipPath>
</defs>
</svg>
