<svg width="54" height="54" viewBox="0 0 54 54" fill="none" xmlns="http://www.w3.org/2000/svg">
<path d="M31.7705 23.6029C31.7039 21.8011 30.3035 20.2513 28.5179 19.9903C26.1671 19.6465 24.0593 21.5023 24.1493 23.9215C24.2159 25.7233 25.6181 27.2731 27.4037 27.5341C29.7527 27.8761 31.8569 26.0221 31.7687 23.6029H31.7705Z" fill="#FFD833"/>
<path d="M42.2925 24.0389C42.2925 15.5933 35.4453 8.74609 26.9979 8.74609C18.5505 8.74609 11.7051 15.5933 11.7051 24.0389C11.7051 27.8639 13.1199 31.3523 15.4401 34.0343H15.4239L18.8313 37.8449V18.0827C18.8313 17.3609 19.0797 16.7471 19.5693 16.2575C20.0589 15.7679 20.6727 15.5195 21.3945 15.5195H29.4117C30.7077 15.5195 31.9389 15.8975 33.0711 16.6427C34.1889 17.3807 35.1051 18.3887 35.7927 19.6379C36.4803 20.8925 36.8295 22.3073 36.8295 23.8481C36.8295 25.3889 36.4803 26.7695 35.7927 28.0223C35.1051 29.2733 34.1907 30.2867 33.0747 31.0337C31.9443 31.7915 30.7113 32.1767 29.4135 32.1767H23.7147V43.3025L24.4257 44.0963C25.7973 45.6317 28.2003 45.6317 29.5737 44.0963L38.3973 34.2305H38.3757C40.8039 31.5233 42.2925 27.9575 42.2925 24.0353V24.0389Z" fill="#FFD833"/>
</svg>
