<svg width="74" height="79" viewBox="0 0 74 79" fill="none" xmlns="http://www.w3.org/2000/svg">
<g filter="url(#filter0_dd_2560_28490)">
<path fill-rule="evenodd" clip-rule="evenodd" d="M32 8C20.9543 8 12 16.9543 12 28V37.6465C12 48.5537 20.7312 57.4216 31.5855 57.6423L34.7737 61.8932C35.6166 63.017 37.3251 62.9445 38.0697 61.7532L40.6363 57.6465H41.6465C52.6922 57.6465 61.6465 48.6922 61.6465 37.6465V28C61.6465 16.9543 52.6922 8 41.6465 8H32Z" fill="#13A590"/>
<path d="M31.5855 57.6423L32.3855 57.0423L32.0931 56.6524L31.6058 56.6425L31.5855 57.6423ZM34.7737 61.8932L33.9737 62.4932V62.4932L34.7737 61.8932ZM38.0697 61.7532L38.9177 62.2832L38.0697 61.7532ZM40.6363 57.6465V56.6465H40.0821L39.7883 57.1165L40.6363 57.6465ZM12 28H13C13 17.5066 21.5066 9 32 9V8V7C20.402 7 11 16.402 11 28H12ZM12 37.6465H13V28H12H11V37.6465H12ZM31.5855 57.6423L31.6058 56.6425C21.2946 56.4329 13 48.0082 13 37.6465H12H11C11 49.0992 20.1677 58.4104 31.5652 58.6421L31.5855 57.6423ZM34.7737 61.8932L35.5737 61.2932L32.3855 57.0423L31.5855 57.6423L30.7855 58.2423L33.9737 62.4932L34.7737 61.8932ZM38.0697 61.7532L37.2217 61.2232C36.8494 61.8188 35.9951 61.8551 35.5737 61.2932L34.7737 61.8932L33.9737 62.4932C35.238 64.179 37.8008 64.0701 38.9177 62.2832L38.0697 61.7532ZM40.6363 57.6465L39.7883 57.1165L37.2217 61.2232L38.0697 61.7532L38.9177 62.2832L41.4843 58.1765L40.6363 57.6465ZM41.6465 57.6465V56.6465H40.6363V57.6465V58.6465H41.6465V57.6465ZM61.6465 37.6465H60.6465C60.6465 48.1399 52.1399 56.6465 41.6465 56.6465V57.6465V58.6465C53.2445 58.6465 62.6465 49.2445 62.6465 37.6465H61.6465ZM61.6465 28H60.6465V37.6465H61.6465H62.6465V28H61.6465ZM41.6465 8V9C52.1399 9 60.6465 17.5066 60.6465 28H61.6465H62.6465C62.6465 16.402 53.2445 7 41.6465 7V8ZM32 8V9H41.6465V8V7H32V8Z" fill="white"/>
<rect x="20.2867" y="16.2882" width="33.6177" height="33.6177" stroke="#13A590" stroke-width="0.888889"/>
<path d="M40.9641 30.8186C40.9131 29.4382 39.8403 28.251 38.4723 28.051C36.6715 27.7877 35.0567 29.2093 35.1257 31.0626C35.1767 32.443 36.2509 33.6302 37.6188 33.8302C39.4183 34.0922 41.0303 32.6719 40.9627 30.8186H40.9641Z" fill="#FFD833"/>
<path d="M49.0256 31.1535C49.0256 24.6835 43.7801 19.438 37.3087 19.438C30.8374 19.438 25.5933 24.6835 25.5933 31.1535C25.5933 34.0837 26.6771 36.7561 28.4546 38.8107H28.4422L31.0525 41.7299V26.5905C31.0525 26.0376 31.2428 25.5674 31.6178 25.1923C31.9929 24.8172 32.4631 24.6269 33.0161 24.6269H39.1579C40.1507 24.6269 41.0939 24.9165 41.9613 25.4874C42.8176 26.0528 43.5195 26.825 44.0462 27.7819C44.573 28.7431 44.8405 29.8269 44.8405 31.0073C44.8405 32.1877 44.573 33.2453 44.0462 34.205C43.5195 35.1634 42.819 35.9398 41.964 36.512C41.0981 37.0925 40.1535 37.3876 39.1593 37.3876H34.7935V45.9109L35.3382 46.519C36.389 47.6952 38.2299 47.6952 39.282 46.519L46.0416 38.961H46.025C47.8852 36.8871 49.0256 34.1554 49.0256 31.1507V31.1535Z" fill="#FFD833"/>
</g>
<defs>
<filter id="filter0_dd_2560_28490" x="0" y="0" width="73.6465" height="78.6934" filterUnits="userSpaceOnUse" color-interpolation-filters="sRGB">
<feFlood flood-opacity="0" result="BackgroundImageFix"/>
<feColorMatrix in="SourceAlpha" type="matrix" values="0 0 0 0 0 0 0 0 0 0 0 0 0 0 0 0 0 0 127 0" result="hardAlpha"/>
<feOffset dy="1"/>
<feGaussianBlur stdDeviation="1.5"/>
<feColorMatrix type="matrix" values="0 0 0 0 0.133333 0 0 0 0 0.160784 0 0 0 0 0.207843 0 0 0 0.3 0"/>
<feBlend mode="normal" in2="BackgroundImageFix" result="effect1_dropShadow_2560_28490"/>
<feColorMatrix in="SourceAlpha" type="matrix" values="0 0 0 0 0 0 0 0 0 0 0 0 0 0 0 0 0 0 127 0" result="hardAlpha"/>
<feMorphology radius="3" operator="dilate" in="SourceAlpha" result="effect2_dropShadow_2560_28490"/>
<feOffset dy="4"/>
<feGaussianBlur stdDeviation="4"/>
<feColorMatrix type="matrix" values="0 0 0 0 0.188235 0 0 0 0 0.282353 0 0 0 0 0.427451 0 0 0 0.15 0"/>
<feBlend mode="normal" in2="effect1_dropShadow_2560_28490" result="effect2_dropShadow_2560_28490"/>
<feBlend mode="normal" in="SourceGraphic" in2="effect2_dropShadow_2560_28490" result="shape"/>
</filter>
</defs>
</svg>
