<svg width="88" height="95" viewBox="0 0 88 95" fill="none" xmlns="http://www.w3.org/2000/svg">
<g filter="url(#filter0_dd_2475_22009)">
<path fill-rule="evenodd" clip-rule="evenodd" d="M32 8C20.9543 8 12 16.9543 12 28V51.3051C12 62.3508 20.9543 71.3051 32 71.3051H36.9778L41.5206 77.3621C42.3635 78.4859 44.072 78.4134 44.8166 77.2221L48.5147 71.3051H55.3051C66.3508 71.3051 75.3051 62.3508 75.3051 51.3051V28C75.3051 16.9543 66.3508 8 55.3051 8H32Z" fill="#FFD833"/>
<path d="M36.9778 71.3051L37.7778 70.7051L37.4778 70.3051H36.9778V71.3051ZM41.5206 77.3621L40.7206 77.9621L41.5206 77.3621ZM44.8166 77.2221L45.6646 77.7521L44.8166 77.2221ZM48.5147 71.3051V70.3051H47.9604L47.6667 70.7751L48.5147 71.3051ZM12 28H13C13 17.5066 21.5066 9 32 9V8V7C20.402 7 11 16.402 11 28H12ZM12 51.3051H13V28H12H11V51.3051H12ZM32 71.3051V70.3051C21.5066 70.3051 13 61.7985 13 51.3051H12H11C11 62.9031 20.402 72.3051 32 72.3051V71.3051ZM36.9778 71.3051V70.3051H32V71.3051V72.3051H36.9778V71.3051ZM41.5206 77.3621L42.3206 76.7621L37.7778 70.7051L36.9778 71.3051L36.1778 71.9051L40.7206 77.9621L41.5206 77.3621ZM44.8166 77.2221L43.9686 76.6921C43.5963 77.2877 42.742 77.324 42.3206 76.7621L41.5206 77.3621L40.7206 77.9621C41.9849 79.6479 44.5477 79.539 45.6646 77.7521L44.8166 77.2221ZM48.5147 71.3051L47.6667 70.7751L43.9686 76.6921L44.8166 77.2221L45.6646 77.7521L49.3627 71.8351L48.5147 71.3051ZM55.3051 71.3051V70.3051H48.5147V71.3051V72.3051H55.3051V71.3051ZM75.3051 51.3051H74.3051C74.3051 61.7985 65.7985 70.3051 55.3051 70.3051V71.3051V72.3051C66.9031 72.3051 76.3051 62.9031 76.3051 51.3051H75.3051ZM75.3051 28H74.3051V51.3051H75.3051H76.3051V28H75.3051ZM55.3051 8V9C65.7985 9 74.3051 17.5066 74.3051 28H75.3051H76.3051C76.3051 16.402 66.9031 7 55.3051 7V8ZM32 8V9H55.3051V8V7H32V8Z" fill="white"/>
<rect x="22.4444" y="18.4444" width="43.1111" height="43.1111" stroke="#FFD833" stroke-width="0.888889"/>
<path d="M48.9327 37.0945C48.8677 35.3344 47.4997 33.8205 45.7555 33.5656C43.4591 33.2297 41.4002 35.0425 41.4881 37.4057C41.5531 39.1658 42.9228 40.6797 44.6671 40.9346C46.9617 41.2687 49.0171 39.4577 48.931 37.0945H48.9327Z" fill="#13A590"/>
<path d="M59.2124 37.5221C59.2124 29.2721 52.5238 22.5835 44.2721 22.5835C36.0203 22.5835 29.3335 29.2721 29.3335 37.5221C29.3335 41.2585 30.7155 44.6661 32.982 47.286H32.9662L36.2946 51.0083V31.7038C36.2946 30.9988 36.5373 30.3992 37.0155 29.9209C37.4938 29.4427 38.0934 29.2 38.7985 29.2H46.63C47.896 29.2 49.0986 29.5693 50.2046 30.2972C51.2965 31.0181 52.1915 32.0028 52.8632 33.223C53.5349 34.4486 53.876 35.8306 53.876 37.3357C53.876 38.8408 53.5349 40.1894 52.8632 41.4132C52.1915 42.6353 51.2983 43.6252 50.2081 44.3549C49.1039 45.0951 47.8995 45.4714 46.6317 45.4714H41.0649V56.3395L41.7595 57.1149C43.0993 58.6148 45.4466 58.6148 46.7882 57.1149L55.4075 47.4776H55.3864C57.7583 44.8331 59.2124 41.3499 59.2124 37.5186V37.5221Z" fill="#13A590"/>
</g>
<defs>
<filter id="filter0_dd_2475_22009" x="0" y="0" width="87.3052" height="94.1621" filterUnits="userSpaceOnUse" color-interpolation-filters="sRGB">
<feFlood flood-opacity="0" result="BackgroundImageFix"/>
<feColorMatrix in="SourceAlpha" type="matrix" values="0 0 0 0 0 0 0 0 0 0 0 0 0 0 0 0 0 0 127 0" result="hardAlpha"/>
<feOffset dy="1"/>
<feGaussianBlur stdDeviation="1.5"/>
<feColorMatrix type="matrix" values="0 0 0 0 0.133333 0 0 0 0 0.160784 0 0 0 0 0.207843 0 0 0 0.3 0"/>
<feBlend mode="normal" in2="BackgroundImageFix" result="effect1_dropShadow_2475_22009"/>
<feColorMatrix in="SourceAlpha" type="matrix" values="0 0 0 0 0 0 0 0 0 0 0 0 0 0 0 0 0 0 127 0" result="hardAlpha"/>
<feMorphology radius="3" operator="dilate" in="SourceAlpha" result="effect2_dropShadow_2475_22009"/>
<feOffset dy="4"/>
<feGaussianBlur stdDeviation="4"/>
<feColorMatrix type="matrix" values="0 0 0 0 0.188235 0 0 0 0 0.282353 0 0 0 0 0.427451 0 0 0 0.15 0"/>
<feBlend mode="normal" in2="effect1_dropShadow_2475_22009" result="effect2_dropShadow_2475_22009"/>
<feBlend mode="normal" in="SourceGraphic" in2="effect2_dropShadow_2475_22009" result="shape"/>
</filter>
</defs>
</svg>
