<svg width="264" height="45" viewBox="0 0 264 45" fill="none" xmlns="http://www.w3.org/2000/svg">
<path fill-rule="evenodd" clip-rule="evenodd" d="M61.6087 39.7153C61.5083 40.213 61.207 40.5614 60.705 40.7605C58.2949 41.507 56.3367 41.8057 54.6798 41.6563C51.366 41.0591 49.8597 38.9687 48.504 36.7291C47.6003 34.9373 46.9978 34.3401 46.3952 34.3401C45.4915 34.1908 44.2864 34.9374 42.6295 36.1318C37.2069 39.8646 29.9767 42.1043 23.8009 42.1043C22.5959 42.1043 21.5415 42.1043 20.4871 41.955C15.9683 41.3577 12.3532 39.4167 10.2444 36.4305C9.03934 35.0867 8.2862 32.3991 7.83432 31.2046C7.7339 30.906 7.68369 30.7069 7.68369 30.6073C7.38243 30.3087 4.67112 28.3677 1.65854 26.4266C1.35729 26.128 1.20666 25.9787 1.05603 25.6801C0.9054 25.0828 1.20666 24.4856 1.65854 24.3363C5.27363 22.8432 6.32803 20.6035 6.93054 19.409C7.2318 18.8118 7.38243 18.5131 7.68369 18.3638C8.2862 18.0652 8.73809 18.3638 9.3406 18.9611C9.94312 19.8569 10.395 20.4542 10.6963 21.0514C11.9013 22.6938 12.8051 23.8883 13.7088 24.4856C14.7632 25.2321 15.8176 25.5308 16.7214 25.6801C21.0896 26.5759 25.1566 26.2773 28.3198 24.7842C30.1273 23.8883 33.1399 22.0966 33.1399 19.409C33.2906 13.2873 26.3616 10.0024 22.8972 8.5093L22.7465 8.35999C22.2445 8.06137 21.9934 7.51389 21.9934 6.71757C22.144 6.26963 22.7465 5.52308 23.6503 5.37377C24.8553 5.37377 25.3072 5.37377 26.6629 5.52308C34.1943 6.71757 39.4663 10.749 41.4245 16.5721C43.232 14.4817 44.4371 11.6448 45.4915 8.80792C46.9978 5.37377 48.3534 2.08893 50.4622 1.19306C51.4664 0.794898 52.5208 0.894438 53.6254 1.49168C55.3325 2.48709 56.3869 4.02997 56.7886 6.12032C57.6924 11.7941 53.776 19.409 50.0103 24.3363C51.5166 25.0828 52.8723 26.4266 53.9267 28.2184C54.3786 28.9649 54.8304 30.0101 55.2823 30.906L55.5836 31.8018C56.7886 34.3401 57.843 36.8784 60.8556 38.5208C61.3075 38.8194 61.6087 39.2674 61.6087 39.7153ZM29.2236 27.1732C25.6085 28.8156 19.2821 29.5622 13.7088 27.6211C13.2569 27.3225 12.6544 27.0239 12.3532 26.8746L10.0937 29.4128C10.8469 29.8608 11.4494 30.1594 12.2025 30.458C19.2821 33.7429 26.3616 33.7429 32.3868 30.6073C33.1399 30.0101 34.1943 29.4128 35.2487 28.6663C38.4119 26.4266 40.0688 22.6938 39.4663 19.409C38.5626 13.8845 34.345 10.0024 27.8679 8.35999C33.1399 11.1969 36.1525 15.6762 35.7006 19.8569C35.3994 22.9925 33.1399 25.5308 29.2236 27.1732ZM41.8764 23.8883C43.9852 22.9925 45.4915 23.1418 47.4496 23.4404C51.9685 17.9159 54.8304 10.0024 53.9267 5.97101C53.7258 4.77652 53.2237 4.02997 52.4204 3.73135C51.9685 3.43273 51.6672 3.43273 51.366 3.58204C50.1609 4.02997 49.1066 6.41895 48.0522 9.25585C46.6965 12.5407 45.0396 16.7214 42.1776 19.8569C42.3283 21.4994 42.1776 22.8432 41.8764 23.8883ZM10.9975 32.5484C11.1481 33.1456 11.4494 34.0415 12.2025 35.0867C14.0101 37.3263 17.0227 38.9687 20.7884 39.566C27.2654 40.4619 35.3994 38.2222 40.9726 34.1908C43.3827 32.3991 45.1902 31.6525 46.6965 31.9511C48.8053 32.2498 49.8597 34.0415 50.6128 35.5346C51.6672 37.3263 52.7216 38.8194 54.8304 39.2674C55.5334 39.3669 56.2865 39.3171 57.0899 39.1181C54.9811 37.177 54.0773 34.788 53.1735 32.5484L53.0229 32.3991C52.571 31.2046 52.1191 30.3087 51.6672 29.4128C50.9141 28.2184 49.7091 26.7252 47.6003 26.128C44.889 25.5308 41.5751 26.7252 37.5082 30.0101C36.3031 30.906 34.9475 31.8018 33.4412 32.6977C29.073 35.0867 24.8553 35.6839 19.4327 35.0867C17.3239 34.788 14.3113 34.0415 11.2988 32.5484H10.9975ZM8.2862 21.9473C7.53306 23.4404 6.32803 24.6349 4.67112 25.5308L5.42426 25.9787C6.42845 26.5759 7.33222 27.1732 8.13557 27.7704C8.58746 27.1732 9.94312 25.6801 10.5456 24.9335C9.94312 24.187 9.03934 23.1418 8.2862 21.9473ZM77.726 8.21068C79.4331 8.31022 80.9394 9.007 82.2448 10.301C83.4499 11.6946 84.0524 13.337 84.0524 15.2283V28.517C84.0524 30.5078 83.3997 32.1502 82.0942 33.4442C80.7888 34.8378 79.2323 35.5346 77.4247 35.5346H75.1653V40.0139H70.7971V8.06137H77.726V8.21068ZM75.3159 31.2046H77.4247C78.0272 31.2046 78.5795 30.9557 79.0816 30.458C79.4833 29.9603 79.6842 29.3631 79.6842 28.6663V15.2283C79.6842 14.5315 79.4833 13.9343 79.0816 13.4366C78.5795 12.9389 78.0272 12.69 77.4247 12.69H75.3159V31.2046ZM87.8181 8.21068H92.1863V35.6839H98.814V40.1632H87.8181V8.21068ZM128.337 8.21068V12.69H124.873V40.0139H120.505V12.69H117.191V8.21068H128.337ZM132.555 9.55448C133.86 8.26045 135.417 7.61343 137.224 7.61343C139.032 7.61343 140.588 8.26045 141.894 9.55448C143.199 10.948 143.852 12.5905 143.852 14.4817V40.0139H139.484V35.5346H134.965V40.0139H130.597V14.4817C130.597 12.5905 131.249 10.948 132.555 9.55448ZM139.484 31.0553V14.4817C139.484 13.785 139.233 13.1877 138.731 12.69C138.329 12.1923 137.827 11.9435 137.224 11.9435C136.622 11.9435 136.019 12.2421 135.718 12.69C135.266 13.1379 135.115 13.8845 135.115 14.4817V31.0553H139.484ZM148.22 7.46412L156.957 19.8569V8.21068H161.475V40.0139H156.957V27.3225L152.588 21.2007V40.0139H148.22V7.46412ZM167.651 9.55448C168.957 8.16091 170.513 7.46412 172.321 7.46412C174.128 7.46412 175.685 8.16091 176.99 9.55448C178.296 10.948 178.948 12.5905 178.948 14.4817V33.5935C178.948 35.5844 178.296 37.2268 176.99 38.5208C175.685 39.9144 174.128 40.6112 172.321 40.6112C170.413 40.6112 168.856 39.9144 167.651 38.5208C166.346 37.1272 165.693 35.4848 165.693 33.5935V14.4817C165.693 12.5905 166.346 10.948 167.651 9.55448ZM170.061 14.4817V33.5935C170.061 34.2903 170.262 34.8876 170.664 35.3853C171.166 35.883 171.718 36.1318 172.321 36.1318C172.923 36.1318 173.375 35.8332 173.827 35.3853C174.229 34.8876 174.43 34.2903 174.43 33.5935V14.4817C174.43 13.785 174.229 13.1877 173.827 12.69C173.425 12.1923 172.923 11.9435 172.321 11.9435C171.718 11.9435 171.116 12.2421 170.664 12.69C170.262 13.1877 170.061 13.785 170.061 14.4817ZM200.79 40.0139H196.421V21.2007L192.053 27.3225L187.534 21.2007V40.0139H183.166V7.46412L192.053 19.7076L200.79 7.46412V40.0139ZM216.154 35.5346V40.0139H205.158V8.21068H214.045V12.69H209.526V17.02H216.154V21.4994H209.526V35.5346H216.154ZM219.769 8.21068H224.288V35.5346H230.915V40.0139H219.769V8.21068ZM233.024 23.5897C233.024 21.5989 233.677 19.9067 234.982 18.5131C236.288 17.2191 237.844 16.5721 239.652 16.5721C241.459 16.5721 243.016 17.2191 244.321 18.5131C245.627 19.9067 246.279 21.5989 246.279 23.5897V33.7429C246.279 35.6341 245.627 37.2766 244.321 38.6701C243.016 40.0637 241.459 40.7605 239.652 40.7605C237.844 40.7605 236.288 40.0637 234.982 38.6701C233.677 37.2766 233.024 35.6341 233.024 33.7429V23.5897ZM244.02 11.6448L235.133 15.3776V11.1969L244.02 7.61343V11.6448ZM237.392 23.4404V33.5935C237.392 34.2903 237.643 34.8876 238.145 35.3853C238.547 35.883 239.049 36.1318 239.652 36.1318C240.254 36.1318 240.706 35.8332 241.158 35.3853C241.56 34.8876 241.761 34.2903 241.761 33.5935V23.4404C241.761 22.7436 241.56 22.1464 241.158 21.6487C240.756 21.151 240.254 20.9021 239.652 20.9021C239.049 20.9021 238.447 21.0514 238.145 21.6487C237.643 22.1464 237.392 22.7436 237.392 23.4404ZM250.045 7.46412L258.932 19.7076V8.06137H263.3V40.0139H258.932V27.3225L254.413 21.2007V40.0139H250.045V7.46412ZM101.676 14.4817C101.676 12.4909 102.329 10.8485 103.634 9.55448C104.94 8.16091 106.496 7.46412 108.304 7.46412C110.111 7.46412 111.668 8.16091 112.973 9.55448C114.279 10.8485 114.931 12.4909 114.931 14.4817V39.8646H110.412V35.3853H106.044V39.8646H101.676V14.4817ZM110.412 31.0553V14.4817C110.513 13.785 110.312 13.1877 109.81 12.69C109.408 12.1923 108.906 11.9435 108.304 11.9435C107.701 11.9435 107.199 12.1923 106.797 12.69C106.345 13.1379 106.195 13.8845 106.195 14.4817V31.0553H110.412Z" fill="#333232"/>
</svg>
