<svg width="70" height="70" viewBox="0 0 70 70" fill="none" xmlns="http://www.w3.org/2000/svg">
<g clip-path="url(#clip0_2487_23567)">
<path d="M70 35C70 41.5567 68.2033 47.6933 65.0533 52.92C62.3467 57.4467 58.66 61.2967 54.2733 64.19C52.5 65.3567 50.5867 66.3833 48.6267 67.2233C45.2667 68.6467 41.65 69.5567 37.8467 69.86C36.9133 69.9533 35.98 69.9767 35.0233 69.9767C34.0667 69.9767 33.1333 69.93 32.2 69.86C28.3967 69.5567 24.78 68.6467 21.42 67.2233C19.4367 66.3833 17.5467 65.3567 15.7733 64.19C11.3867 61.2967 7.7 57.4467 4.99333 52.92C1.79667 47.6933 0 41.5567 0 35C0 15.68 15.6567 0 34.9767 0C54.2967 0 70 15.6567 70 34.9767V35Z" fill="#13A590"/>
<path d="M41.1596 21.9568H51.9862V17.7802H45.3129V13.1602H41.1362V17.7802H40.5996C37.2162 17.7802 34.4862 20.5335 34.4862 23.8935C34.4862 27.2768 37.2396 30.0068 40.5996 30.0068H45.8496C46.9229 30.0068 47.8096 30.8702 47.8096 31.9668C47.8096 33.0402 46.9462 33.9268 45.8496 33.9268H34.4629V38.1035H41.1362V42.7235H45.3129V38.1035H45.8496C49.2329 38.1035 51.9629 35.3502 51.9629 31.9902C51.9629 28.6068 49.2096 25.8768 45.8496 25.8768H40.5996C39.5262 25.8768 38.6396 25.0135 38.6396 23.9168C38.6396 22.8435 39.5029 21.9568 40.5996 21.9568H41.1362H41.1596Z" fill="white"/>
<path d="M15.7507 34.7188V64.1888C11.364 61.2954 7.67737 57.4454 4.9707 52.9188V34.7188H15.7507Z" fill="#FFD833"/>
<path d="M32.1765 16.3789V69.8589C28.3732 69.5556 24.7565 68.6456 21.3965 67.2222V16.3789H32.1765Z" fill="#FFD833"/>
<path d="M48.6257 52.3359V67.2226C45.2657 68.6459 41.649 69.5559 37.8457 69.8593V52.3359H48.6257Z" fill="#FFD833"/>
</g>
<defs>
<clipPath id="clip0_2487_23567">
<rect width="70" height="70" fill="white"/>
</clipPath>
</defs>
</svg>
