<svg width="70" height="70" viewBox="0 0 70 70" fill="none" xmlns="http://www.w3.org/2000/svg">
<g clip-path="url(#clip0_2487_23501)">
<path d="M70 35C70 41.1367 68.4367 46.8767 65.66 51.8933C59.92 62.2767 49.07 69.44 36.47 69.9767C35.98 70 35.49 70 34.9767 70C34.4633 70 33.9967 70 33.5067 69.9767C20.93 69.4633 10.0567 62.3 4.31667 51.8933C1.56333 46.8767 0 41.1367 0 35C0 15.6567 15.68 0 35 0C54.32 0 70 15.68 70 35Z" fill="#F8F4DA"/>
<path d="M65.6599 51.8942C61.5765 59.2909 54.8799 65.0542 46.8299 67.9709C43.1432 69.3009 39.1532 70.0242 34.9765 70.0242C30.7999 70.0242 26.8332 69.3009 23.1232 67.9709C21.7232 67.4576 20.3465 66.8743 19.0399 66.1976C12.8099 63.0009 7.65321 58.0309 4.29321 51.9176C9.44988 40.3442 19.0165 30.4509 30.2632 28.2342C31.8032 27.9309 33.3665 27.7676 34.9532 27.7676C48.2065 27.7676 59.7565 38.7576 65.6365 51.8942H65.6599Z" fill="#13A590"/>
<path d="M50.8432 12.0404C50.8432 20.7904 43.7498 31.2904 34.9998 31.2904C26.2498 31.2904 32.7832 31.1038 31.7332 30.8004C24.5465 28.6304 19.1565 19.6704 19.1565 12.0404C19.1565 4.41042 23.8465 3.99042 30.3098 3.89709C31.7798 3.87376 33.3665 3.89709 34.9998 3.89709C43.7498 3.89709 50.8432 3.29042 50.8432 12.0404Z" fill="#13A590"/>
<path d="M49.5133 59.5231C49.5133 62.6731 48.5099 65.5664 46.8299 67.9464C43.1433 69.2764 39.1533 69.9998 34.9766 69.9998C30.7999 69.9998 26.8333 69.2764 23.1233 67.9464C21.4199 65.5664 20.4399 62.6731 20.4399 59.5231C20.4399 51.4964 26.9499 45.0098 34.9533 45.0098C43.0033 45.0098 49.5133 51.4964 49.5133 59.5231Z" fill="#FFD833"/>
<path d="M32.13 57.7964C31.8734 58.053 31.71 58.403 31.71 58.7764C31.71 59.5464 32.34 60.1764 33.11 60.1764H36.8434C38.0567 60.1764 39.13 60.6664 39.9234 61.4597C40.7167 62.253 41.2067 63.3264 41.2067 64.5397C41.2067 66.943 39.2467 68.903 36.8434 68.903H36.47V69.9764C35.98 69.9997 35.49 69.9997 34.9767 69.9997C34.4634 69.9997 33.9967 69.9997 33.5067 69.9764V68.903H28.77V65.9397H36.8667C37.24 65.9397 37.6134 65.7997 37.8467 65.5197C38.1034 65.263 38.2667 64.913 38.2667 64.5397C38.2667 63.7697 37.6367 63.1397 36.8667 63.1397H33.1334C31.92 63.1397 30.8467 62.6497 30.0534 61.8564C29.26 61.063 28.77 59.9664 28.77 58.7764C28.77 56.373 30.73 54.413 33.1334 54.413H33.5067V51.123H36.47V54.413H41.2067V57.3764H33.11C32.7367 57.3764 32.3634 57.5164 32.13 57.7964Z" fill="#CCAC28"/>
<path d="M31.7334 30.7998C24.5467 28.6298 19.1567 19.6698 19.1567 12.0398C19.1567 4.40982 23.8467 3.98982 30.3101 3.89648C30.0767 4.01315 18.9234 9.89315 30.3101 28.1865C30.9167 29.1665 31.3834 30.0298 31.7334 30.7765V30.7998Z" fill="#0F8473"/>
<path d="M19.0633 66.1733C12.8333 62.9766 7.67665 58.0066 4.31665 51.8933C9.47332 40.32 19.04 30.4266 30.2867 28.21C30.2867 28.21 13.4867 45.0333 19.04 66.1733H19.0633Z" fill="#0F8473"/>
<path d="M45.5701 30.3336H24.4068C23.4268 30.3336 22.6101 29.5169 22.6101 28.5369C22.6101 27.5569 23.4268 26.7402 24.4068 26.7402H45.5701C46.5501 26.7402 47.3668 27.5569 47.3668 28.5369C47.3668 29.5402 46.5734 30.3336 45.5701 30.3336Z" fill="#FFD833"/>
<path d="M27.5334 28.5369C27.5334 27.5569 28.3501 26.7402 29.3301 26.7402H24.4068C23.4268 26.7402 22.6101 27.5569 22.6101 28.5369C22.6101 29.5169 23.4268 30.3336 24.4068 30.3336H29.3301C28.3501 30.3336 27.5334 29.5402 27.5334 28.5369Z" fill="#CCAC28"/>
</g>
<defs>
<clipPath id="clip0_2487_23501">
<rect width="70" height="70" fill="white"/>
</clipPath>
</defs>
</svg>
