<svg width="236" height="248" viewBox="0 0 236 248" fill="none" xmlns="http://www.w3.org/2000/svg">
<path d="M233.876 124.081C233.876 137.391 231.831 150.204 228.055 162.108C222.155 180.873 212.007 197.655 198.869 211.212C178.023 232.623 149.467 245.767 117.921 245.767C53.9654 245.767 2.12402 191.289 2.12402 123.999C2.12402 56.7081 53.9654 2.23079 118 2.23079C182.035 2.23079 233.955 56.7908 233.955 124.081H233.876Z" fill="#13A590"/>
<path d="M161.896 47.3675V116.973C161.896 127.554 153.714 136.069 143.724 136.069H63.5624L60.8877 138.218L27.2184 165.25V136.069C17.1491 136.069 9.04639 127.471 9.04639 116.973V47.3675C9.04639 36.7862 17.2277 28.2715 27.2184 28.2715H143.645C153.714 28.2715 161.817 36.7862 161.817 47.3675H161.896Z" fill="#FFD833"/>
<path d="M141.757 48.8552H27.2185V60.6766H141.757V48.8552Z" fill="white"/>
<path d="M141.757 76.2158H27.2185V88.0371H141.757V76.2158Z" fill="white"/>
<path d="M141.757 103.581H27.2185V115.402H141.757V103.581Z" fill="white"/>
<path d="M209.961 103.416H93.5348C83.4655 103.416 75.3628 112.014 75.3628 122.512V192.118C75.3628 202.699 83.5441 211.214 93.5348 211.214H145.612L167.167 231.798V211.214H198.869C212.007 197.739 222.155 180.875 228.055 162.11V122.512C228.055 112.014 219.952 103.416 209.883 103.416H209.961Z" fill="#F8F4DA"/>
<path d="M160.795 225.596C162.997 224.356 165.121 223.116 167.245 221.71V231.713L160.795 225.513V225.596Z" fill="#D3CEC2"/>
<path d="M228.133 122.512V162.109C222.233 180.874 212.085 197.655 198.948 211.213H181.248C183.529 209.229 185.811 207.079 187.935 204.847C201.072 191.373 211.22 174.509 217.12 155.743C220.896 143.757 222.941 130.944 222.941 117.717C222.941 104.49 222.863 111.682 222.627 108.789C226.009 112.261 228.133 117.138 228.133 122.512Z" fill="#D3CEC2"/>
<path d="M146.556 142.187H173.46V131.275H156.861V119.205H146.477V131.275H145.14C136.723 131.275 129.957 138.384 129.957 147.229C129.957 156.075 136.723 163.184 145.14 163.184H158.199C160.873 163.184 163.076 165.499 163.076 168.309C163.076 171.12 160.873 173.435 158.199 173.435H129.879V184.347H146.477V196.416H156.861V184.347H158.199C166.616 184.347 173.381 177.237 173.381 168.392C173.381 159.547 166.616 152.437 158.199 152.437H145.14C142.465 152.437 140.263 150.123 140.263 147.312C140.263 144.501 142.465 142.187 145.14 142.187H146.477H146.556Z" fill="#13A590"/>
</svg>
