<svg width="150" height="34" viewBox="0 0 150 34" fill="none" xmlns="http://www.w3.org/2000/svg">
<path d="M103.389 11.0156C102.866 10.0655 102.171 9.30022 101.319 8.73916C100.459 8.1738 99.523 7.88574 98.5377 7.88574H92.4452C91.8966 7.88574 91.4298 8.07491 91.0576 8.4468C90.6854 8.8187 90.4961 9.28517 90.4961 9.83333V25.4528C90.4961 26.476 91.3265 27.3058 92.3505 27.3058C93.3746 27.3058 94.205 26.476 94.205 25.4528V20.5408H98.5377C99.523 20.5408 100.461 20.2484 101.322 19.6723C102.171 19.1048 102.866 18.3352 103.389 17.3851C103.912 16.4328 104.176 15.3666 104.176 14.2143C104.176 13.0621 103.912 11.9701 103.389 11.0178V11.0156ZM96.7177 17.0089C95.3602 16.8111 94.2953 15.6353 94.2437 14.2659C94.1748 12.428 95.7776 11.0178 97.5632 11.2801C98.9185 11.4778 99.9855 12.6558 100.035 14.023C100.102 15.8588 98.5011 17.269 96.7155 17.0089H96.7177Z" fill="#FFD833"/>
<path d="M39.1324 11.9482C38.5752 11.9482 38.1041 12.1396 37.7362 12.5201C37.3705 12.8962 37.1833 13.3692 37.1833 13.9238V20.8005C37.1833 21.813 36.966 22.5654 36.5358 23.034C36.1141 23.4941 35.4472 23.7284 34.5523 23.7284C33.6573 23.7284 33.0162 23.4941 32.5946 23.034C32.1664 22.5654 31.947 21.8152 31.947 20.8005V13.9238C31.947 13.3713 31.762 12.8984 31.3941 12.5201C31.0241 12.1417 30.5551 11.9482 29.9979 11.9482C29.4407 11.9482 28.9696 12.1396 28.6017 12.5201C28.236 12.8962 28.0488 13.3692 28.0488 13.9238V20.8005C28.0488 22.7911 28.6125 24.3948 29.7226 25.5706C30.8369 26.7508 32.4612 27.3506 34.5501 27.3506C36.639 27.3506 38.2654 26.753 39.3906 25.5728C40.5114 24.3969 41.0793 22.7911 41.0793 20.8005V13.9238C41.0793 13.3713 40.8943 12.8984 40.5265 12.5201C40.1564 12.1417 39.6874 11.9482 39.1303 11.9482H39.1324Z" fill="#FFD833"/>
<path d="M55.9261 12.589C55.1731 11.9849 54.0803 11.6797 52.6755 11.6797C52.0258 11.6797 51.4148 11.7829 50.8576 11.9828C50.3068 12.1806 49.8056 12.4471 49.3667 12.7717C49.0354 13.0168 48.7364 13.2769 48.4696 13.5499C48.4029 13.1544 48.2287 12.8104 47.9469 12.5224C47.5768 12.144 47.1078 11.9505 46.5507 11.9505C45.9935 11.9505 45.5223 12.1419 45.1544 12.5224C44.7887 12.8985 44.6016 13.3715 44.6016 13.9261V25.1086C44.6016 25.6632 44.7866 26.134 45.1544 26.5102C45.5223 26.8885 45.9935 27.082 46.5507 27.082C47.1078 27.082 47.579 26.8907 47.9469 26.5102C48.3126 26.134 48.4997 25.6611 48.4997 25.1065V18.1738C48.4997 17.6364 48.6181 17.1463 48.8526 16.7185C49.0849 16.295 49.427 15.9489 49.8701 15.691C50.3155 15.433 50.8769 15.3019 51.5374 15.3019C52.1979 15.3019 52.7142 15.4265 53.0541 15.6738C53.3983 15.9231 53.6306 16.2477 53.764 16.6626C53.906 17.1076 53.9791 17.617 53.9791 18.176V25.1086C53.9791 25.6632 54.1642 26.134 54.532 26.5102C54.8999 26.8885 55.371 27.082 55.9282 27.082C56.4854 27.082 56.9566 26.8907 57.3244 26.5102C57.6902 26.134 57.8773 25.6611 57.8773 25.1065V18.1738C57.8773 17.013 57.7418 15.9403 57.4729 14.9859C57.1932 13.9949 56.6747 13.1887 55.9282 12.589H55.9261Z" fill="#FFD833"/>
<path d="M67.9818 15.8438C68.5002 15.8438 68.9412 15.6719 69.2897 15.3322C69.6426 14.9904 69.8211 14.5626 69.8211 14.0575C69.8211 13.5523 69.6426 13.0966 69.2919 12.7462C68.9412 12.3958 68.5002 12.2195 67.9796 12.2195H66.379V10.8093C66.379 10.2569 66.1983 9.78609 65.8433 9.4099C65.4841 9.02941 65.0172 8.83594 64.4579 8.83594C63.8986 8.83594 63.4296 9.02726 63.0509 9.40345C62.6745 9.78179 62.483 10.2547 62.483 10.8093V12.2195H61.5601C61.0416 12.2195 60.6006 12.3915 60.2521 12.7311C59.8993 13.0729 59.7207 13.5007 59.7207 14.0059C59.7207 14.511 59.8993 14.9668 60.2478 15.3172C60.5984 15.6676 61.0395 15.846 61.5601 15.846H62.483V22.9958C62.483 23.9287 62.6336 24.6832 62.9283 25.2336C63.2252 25.7882 63.606 26.2073 64.0621 26.4825C64.5052 26.7469 64.9828 26.9167 65.4841 26.9855C65.9552 27.05 66.3941 27.0844 66.7878 27.0844C67.4762 27.0844 68.128 26.906 68.7261 26.5534C69.3801 26.1687 69.7114 25.6549 69.7114 25.0293C69.7114 24.5349 69.5802 24.1351 69.3177 23.8406C69.0467 23.5353 68.7326 23.3805 68.3862 23.3805C68.1065 23.3805 67.8527 23.43 67.6311 23.531C67.3643 23.6514 67.0158 23.66 66.7361 23.5418C66.6286 23.4966 66.5447 23.4235 66.4801 23.3182C66.4134 23.2086 66.379 23.0559 66.379 22.8646V15.8503H67.9796L67.9818 15.8438Z" fill="#FFD833"/>
<path d="M83.3833 12.6836C82.228 12.0172 80.92 11.6797 79.4958 11.6797C78.0717 11.6797 76.7658 12.0172 75.6084 12.6836C74.4532 13.35 73.5195 14.2829 72.8354 15.4545C72.1491 16.6261 71.8027 17.9975 71.8027 19.5302C71.8027 21.063 72.1512 22.4323 72.8354 23.606C73.5195 24.7776 74.4532 25.7062 75.6106 26.364C76.7658 27.0218 78.0717 27.3529 79.4958 27.3529C80.92 27.3529 82.228 27.0197 83.3811 26.364C84.5364 25.7084 85.47 24.7797 86.1563 23.606C86.8426 22.4344 87.1889 21.063 87.1889 19.5302C87.1889 17.9975 86.8404 16.6282 86.1563 15.4545C85.47 14.2829 84.5385 13.35 83.3833 12.6836ZM81.4019 23.2062C80.8318 23.5523 80.1929 23.7285 79.4958 23.7285C78.7988 23.7285 78.1599 23.5523 77.5898 23.2062C77.0175 22.8579 76.555 22.3657 76.2151 21.7423C75.873 21.1167 75.6988 20.3708 75.6988 19.5281C75.6988 18.6854 75.873 17.9116 76.2151 17.286C76.5571 16.6626 77.0197 16.1703 77.5898 15.8221C78.1599 15.476 78.7988 15.2997 79.4958 15.2997C80.1929 15.2997 80.8318 15.476 81.4019 15.8221C81.972 16.1682 82.4345 16.6626 82.7766 17.286C83.1187 17.9116 83.2929 18.6661 83.2929 19.5281C83.2929 20.3901 83.1187 21.1167 82.7766 21.7423C82.4345 22.3657 81.972 22.8579 81.4019 23.2062Z" fill="#FFD833"/>
<path d="M117.918 12.6833C116.763 12.0169 115.455 11.6794 114.031 11.6794C112.607 11.6794 111.301 12.0169 110.144 12.6833C108.988 13.3497 108.055 14.2827 107.371 15.4542C106.684 16.6258 106.338 17.9973 106.338 19.53C106.338 21.0627 106.686 22.432 107.371 23.6058C108.055 24.7773 108.988 25.706 110.146 26.3638C111.301 27.0216 112.607 27.3526 114.031 27.3526C115.455 27.3526 116.763 27.0194 117.916 26.3638C119.072 25.7081 120.005 24.7795 120.691 23.6058C121.378 22.4342 121.724 21.0627 121.724 19.53C121.724 17.9973 121.376 16.628 120.691 15.4542C120.005 14.2827 119.074 13.3497 117.918 12.6833ZM115.937 23.2059C115.367 23.552 114.728 23.7283 114.031 23.7283C113.334 23.7283 112.695 23.552 112.125 23.2059C111.553 22.8577 111.09 22.3654 110.75 21.742C110.408 21.1165 110.234 20.3705 110.234 19.5279C110.234 18.6852 110.408 17.9113 110.75 17.2858C111.092 16.6624 111.555 16.1701 112.125 15.8218C112.695 15.4757 113.334 15.2995 114.031 15.2995C114.728 15.2995 115.367 15.4757 115.937 15.8218C116.507 16.1679 116.97 16.6624 117.312 17.2858C117.654 17.9113 117.828 18.6658 117.828 19.5279C117.828 20.3899 117.654 21.1165 117.312 21.742C116.97 22.3654 116.507 22.8577 115.937 23.2059Z" fill="#FFD833"/>
<path d="M134.499 19.2072C134.009 18.8676 133.464 18.5903 132.879 18.3839C132.316 18.184 131.752 18.0099 131.203 17.8615C130.689 17.7197 130.199 17.5713 129.743 17.4209C129.327 17.2833 128.996 17.1049 128.759 16.892C128.557 16.7115 128.46 16.4664 128.46 16.144C128.46 15.7914 128.542 15.5399 128.703 15.398C128.895 15.2282 129.117 15.1186 129.379 15.067C129.674 15.0089 129.949 14.9788 130.196 14.9788C130.814 14.9788 131.367 15.0885 131.838 15.3013C132.303 15.512 132.675 15.8 132.95 16.1526L132.987 16.1912C133.275 16.4578 133.641 16.6104 134.075 16.6427C134.521 16.6749 134.914 16.5567 135.252 16.288C135.719 15.9096 135.932 15.469 135.885 14.9767C135.844 14.5403 135.704 14.1598 135.465 13.8352C135.058 13.315 134.551 12.8894 133.953 12.5712C133.37 12.2617 132.75 12.0317 132.109 11.8919C130.468 11.5286 128.987 11.6383 127.619 12.2208C126.769 12.5841 126.066 13.1065 125.53 13.7772C124.98 14.4651 124.7 15.3056 124.7 16.2794C124.7 17.1285 124.87 17.8486 125.205 18.4183C125.537 18.9837 125.973 19.4437 126.501 19.7855C127.008 20.1144 127.574 20.3852 128.185 20.5916C128.768 20.7894 129.353 20.9721 129.925 21.1398C130.457 21.2816 130.945 21.4343 131.373 21.5912C131.776 21.7395 132.103 21.9201 132.344 22.1286C132.541 22.3006 132.638 22.5306 132.638 22.8315C132.638 23.2056 132.55 23.4764 132.376 23.6377C132.176 23.8225 131.948 23.9386 131.679 23.9902C131.369 24.0504 131.081 24.0913 130.846 24.1063C130.033 24.1063 129.353 23.973 128.822 23.7065C128.278 23.4356 127.75 23.0465 127.253 22.5478C126.892 22.1867 126.505 21.9867 126.105 21.9545C125.707 21.9201 125.335 22.0147 124.984 22.2339C124.44 22.5822 124.153 23.0143 124.13 23.5194C124.108 23.9881 124.209 24.3858 124.433 24.6975L124.437 24.7039C125.177 25.6906 126.122 26.3892 127.245 26.7783C128.34 27.1588 129.452 27.3501 130.549 27.3501C131.436 27.3501 132.318 27.1739 133.165 26.8256C134.024 26.4731 134.749 25.9464 135.323 25.2585C135.913 24.5534 136.212 23.6893 136.212 22.6961C136.212 21.8492 136.052 21.1376 135.736 20.5744C135.424 20.0198 135.009 19.5598 134.501 19.2094L134.499 19.2072Z" fill="#FFD833"/>
<path d="M146.554 23.376C146.275 23.376 146.021 23.4255 145.799 23.5265C145.532 23.6469 145.184 23.6555 144.904 23.5373C144.797 23.4921 144.713 23.419 144.648 23.3137C144.582 23.2041 144.547 23.0515 144.547 22.8601V15.8458H146.148C146.666 15.8458 147.107 15.6738 147.456 15.3342C147.809 14.9924 147.987 14.5646 147.987 14.0594C147.987 13.5542 147.809 13.0985 147.458 12.7481C147.107 12.3977 146.666 12.2215 146.146 12.2215H144.545V10.8113C144.545 10.2588 144.364 9.78804 144.009 9.41185C143.65 9.03136 143.183 8.83789 142.624 8.83789C142.065 8.83789 141.596 9.02921 141.217 9.4054C140.84 9.78374 140.649 10.2567 140.649 10.8113V12.2215H139.726C139.208 12.2215 138.767 12.3934 138.418 12.7331C138.065 13.0749 137.887 13.5027 137.887 14.0078C137.887 14.513 138.065 14.9687 138.414 15.3191C138.764 15.6695 139.205 15.8479 139.726 15.8479H140.649V22.9977C140.649 23.9307 140.8 24.6852 141.094 25.2355C141.391 25.7901 141.772 26.2093 142.228 26.4845C142.671 26.7489 143.149 26.9187 143.65 26.9875C144.121 27.052 144.56 27.0864 144.954 27.0864C145.642 27.0864 146.294 26.9079 146.892 26.5554C147.546 26.1706 147.877 25.6568 147.877 25.0313C147.877 24.5369 147.746 24.137 147.484 23.8425C147.213 23.5373 146.899 23.3825 146.552 23.3825L146.554 23.376Z" fill="#FFD833"/>
<path d="M17.0298 14.0225C16.9803 12.6532 15.9154 11.4773 14.558 11.2795C12.7702 11.0173 11.1696 12.4274 11.2385 14.2654C11.2901 15.6347 12.355 16.8106 13.7125 17.0084C15.4981 17.2685 17.0987 15.8604 17.0298 14.0225Z" fill="#FFD833"/>
<path d="M25.0284 14.3558C25.0284 7.94124 19.8243 2.74121 13.4048 2.74121C6.98528 2.74121 1.78125 7.94124 1.78125 14.3558C1.78125 17.2622 2.85691 19.9106 4.62099 21.9484H4.61023L7.20041 24.844V9.83509C7.20041 9.28693 7.38973 8.82045 7.76191 8.44856C8.13408 8.07667 8.60092 7.8875 9.14951 7.8875H15.242C16.2273 7.8875 17.1632 8.17555 18.0237 8.74091C18.8735 9.29983 19.5705 10.0673 20.0933 11.0174C20.616 11.9697 20.8806 13.0445 20.8806 14.214C20.8806 15.3834 20.616 16.4324 20.0933 17.3847C19.5705 18.3349 18.8756 19.1044 18.0258 19.6719C17.1653 20.2481 16.2295 20.5404 15.242 20.5404H10.9114V28.9907L11.4514 29.5948C12.4948 30.7599 14.3213 30.762 15.3647 29.5948L22.0703 22.1011H22.0531C23.8989 20.0438 25.0305 17.3374 25.0305 14.358L25.0284 14.3558Z" fill="#FFD833"/>
</svg>
