<svg width="94" height="22" viewBox="0 0 94 22" fill="none" xmlns="http://www.w3.org/2000/svg">
<g clip-path="url(#clip0_2591_7864)">
<path d="M64.7066 7.26787C64.3737 6.66294 63.9312 6.17571 63.3886 5.81849C62.8406 5.45854 62.2447 5.27515 61.6172 5.27515H57.7373C57.388 5.27515 57.0907 5.39559 56.8537 5.63236C56.6167 5.86913 56.4961 6.16613 56.4961 6.51513V16.4596C56.4961 17.1111 57.0249 17.6394 57.677 17.6394C58.3292 17.6394 58.858 17.1111 58.858 16.4596V13.3323H61.6172C62.2447 13.3323 62.842 13.1461 63.39 12.7794C63.9311 12.418 64.3737 11.9281 64.7066 11.3231C65.0395 10.7168 65.208 10.038 65.208 9.3044C65.208 8.57081 65.0395 7.87555 64.7066 7.26924V7.26787ZM60.4582 11.0836C59.5937 10.9577 58.9155 10.2091 58.8827 9.33724C58.8388 8.16706 59.8595 7.26924 60.9966 7.43622C61.8597 7.56213 62.5392 8.31214 62.5707 9.18259C62.6132 10.3514 61.5939 11.2492 60.4568 11.0836H60.4582Z" fill="#13A590"/>
<path d="M23.7868 7.86182C23.432 7.86182 23.132 7.98362 22.8977 8.22587C22.6648 8.46538 22.5456 8.76648 22.5456 9.11959V13.4978C22.5456 14.1425 22.4072 14.6215 22.1332 14.9198C21.8647 15.2127 21.44 15.3619 20.8701 15.3619C20.3001 15.3619 19.8919 15.2127 19.6234 14.9198C19.3507 14.6215 19.211 14.1438 19.211 13.4978V9.11959C19.211 8.76785 19.0932 8.46675 18.8589 8.22587C18.6232 7.98499 18.3246 7.86182 17.9697 7.86182C17.6149 7.86182 17.3149 7.98362 17.0806 8.22587C16.8477 8.46538 16.7285 8.76648 16.7285 9.11959V13.4978C16.7285 14.7652 17.0875 15.7862 17.7944 16.5348C18.5041 17.2862 19.5384 17.6681 20.8687 17.6681C22.199 17.6681 23.2347 17.2876 23.9512 16.5362C24.665 15.7876 25.0267 14.7652 25.0267 13.4978V9.11959C25.0267 8.76785 24.9089 8.46675 24.6746 8.22587C24.4389 7.98499 24.1403 7.86182 23.7855 7.86182H23.7868Z" fill="#13A590"/>
<path d="M34.4813 8.2696C34.0018 7.88502 33.3058 7.69067 32.4112 7.69067C31.9974 7.69067 31.6084 7.75637 31.2535 7.88365C30.9028 8.00956 30.5836 8.17927 30.3041 8.38594C30.0931 8.54196 29.9027 8.70757 29.7328 8.88138C29.6903 8.62955 29.5794 8.41057 29.3999 8.22718C29.1643 7.9863 28.8656 7.86312 28.5108 7.86312C28.1559 7.86312 27.8559 7.98493 27.6216 8.22718C27.3887 8.46669 27.2695 8.76779 27.2695 9.12089V16.2405C27.2695 16.5936 27.3873 16.8933 27.6216 17.1329C27.8559 17.3737 28.1559 17.4969 28.5108 17.4969C28.8656 17.4969 29.1656 17.3751 29.3999 17.1329C29.6328 16.8933 29.752 16.5923 29.752 16.2391V11.8253C29.752 11.4832 29.8273 11.1711 29.9767 10.8987C30.1246 10.6291 30.3425 10.4088 30.6247 10.2445C30.9083 10.0803 31.2659 9.99682 31.6865 9.99682C32.107 9.99682 32.4358 10.0762 32.6523 10.2336C32.8715 10.3924 33.0195 10.599 33.1044 10.8632C33.1948 11.1465 33.2414 11.4708 33.2414 11.8267V16.2405C33.2414 16.5936 33.3592 16.8933 33.5935 17.1329C33.8278 17.3737 34.1278 17.4969 34.4826 17.4969C34.8375 17.4969 35.1375 17.3751 35.3718 17.1329C35.6047 16.8933 35.7239 16.5923 35.7239 16.2391V11.8253C35.7239 11.0862 35.6376 10.4033 35.4663 9.79563C35.2882 9.16469 34.958 8.65145 34.4826 8.2696H34.4813Z" fill="#13A590"/>
<path d="M42.1593 10.3419C42.4895 10.3419 42.7703 10.2324 42.9923 10.0161C43.2169 9.79852 43.3306 9.52616 43.3306 9.20453C43.3306 8.8829 43.2169 8.59275 42.9936 8.36967C42.7703 8.14658 42.4895 8.03435 42.1579 8.03435H41.1386V7.13653C41.1386 6.78479 41.0235 6.48506 40.7975 6.24555C40.5687 6.0033 40.2714 5.88013 39.9152 5.88013C39.559 5.88013 39.2603 6.00194 39.0192 6.24145C38.7795 6.48232 38.6575 6.78342 38.6575 7.13653V8.03435H38.0698C37.7396 8.03435 37.4588 8.14384 37.2368 8.36009C37.0121 8.5777 36.8984 8.85006 36.8984 9.17169C36.8984 9.49331 37.0121 9.78346 37.2341 10.0065C37.4574 10.2296 37.7383 10.3432 38.0698 10.3432H38.6575V14.8953C38.6575 15.4893 38.7534 15.9697 38.9411 16.32C39.1302 16.6732 39.3727 16.94 39.6631 17.1152C39.9453 17.2836 40.2495 17.3917 40.5687 17.4355C40.8687 17.4765 41.1482 17.4984 41.3989 17.4984C41.8373 17.4984 42.2524 17.3848 42.6333 17.1604C43.0498 16.9154 43.2608 16.5883 43.2608 16.19C43.2608 15.8752 43.1772 15.6207 43.0101 15.4332C42.8374 15.2388 42.6374 15.1403 42.4168 15.1403C42.2387 15.1403 42.0771 15.1718 41.936 15.2361C41.7661 15.3127 41.5441 15.3182 41.366 15.2429C41.2975 15.2142 41.2441 15.1677 41.203 15.1006C41.1605 15.0308 41.1386 14.9336 41.1386 14.8118V10.346H42.1579L42.1593 10.3419Z" fill="#13A590"/>
<path d="M51.9666 8.32982C51.2309 7.90555 50.3979 7.69067 49.491 7.69067C48.584 7.69067 47.7524 7.90555 47.0153 8.32982C46.2796 8.7541 45.6851 9.34809 45.2494 10.094C44.8124 10.8399 44.5918 11.7131 44.5918 12.6889C44.5918 13.6647 44.8137 14.5366 45.2494 15.2838C45.6851 16.0297 46.2796 16.621 47.0167 17.0398C47.7524 17.4586 48.584 17.6694 49.491 17.6694C50.3979 17.6694 51.2309 17.4572 51.9652 17.0398C52.7009 16.6224 53.2955 16.0311 53.7325 15.2838C54.1695 14.5379 54.3901 13.6647 54.3901 12.6889C54.3901 11.7131 54.1682 10.8413 53.7325 10.094C53.2955 9.34809 52.7023 8.7541 51.9666 8.32982ZM50.7048 15.0293C50.3417 15.2496 49.9348 15.3619 49.491 15.3619C49.0471 15.3619 48.6402 15.2496 48.2771 15.0293C47.9127 14.8076 47.6182 14.4941 47.4017 14.0972C47.1839 13.699 47.0729 13.224 47.0729 12.6875C47.0729 12.151 47.1839 11.6583 47.4017 11.2601C47.6195 10.8632 47.9141 10.5497 48.2771 10.328C48.6402 10.1077 49.0471 9.99545 49.491 9.99545C49.9348 9.99545 50.3417 10.1077 50.7048 10.328C51.0678 10.5484 51.3624 10.8632 51.5802 11.2601C51.7981 11.6583 51.909 12.1387 51.909 12.6875C51.909 13.2364 51.7981 13.699 51.5802 14.0972C51.3624 14.4941 51.0678 14.8076 50.7048 15.0293Z" fill="#13A590"/>
<path d="M73.9597 8.32982C73.224 7.90555 72.3911 7.69067 71.4841 7.69067C70.5772 7.69067 69.7456 7.90555 69.0085 8.32982C68.2728 8.7541 67.6782 9.34809 67.2426 10.094C66.8055 10.8399 66.585 11.7131 66.585 12.6889C66.585 13.6647 66.8069 14.5366 67.2426 15.2838C67.6782 16.0297 68.2728 16.621 69.0099 17.0398C69.7456 17.4586 70.5772 17.6694 71.4841 17.6694C72.3911 17.6694 73.224 17.4572 73.9584 17.0398C74.6941 16.6224 75.2887 16.0311 75.7257 15.2838C76.1627 14.5379 76.3833 13.6647 76.3833 12.6889C76.3833 11.7131 76.1614 10.8413 75.7257 10.094C75.2887 9.34809 74.6954 8.7541 73.9597 8.32982ZM72.698 15.0293C72.3349 15.2496 71.928 15.3619 71.4841 15.3619C71.0402 15.3619 70.6334 15.2496 70.2703 15.0293C69.9059 14.8076 69.6113 14.4941 69.3949 14.0972C69.177 13.699 69.0661 13.224 69.0661 12.6875C69.0661 12.151 69.177 11.6583 69.3949 11.2601C69.6127 10.8632 69.9072 10.5497 70.2703 10.328C70.6334 10.1077 71.0402 9.99545 71.4841 9.99545C71.928 9.99545 72.3349 10.1077 72.698 10.328C73.061 10.5484 73.3556 10.8632 73.5734 11.2601C73.7912 11.6583 73.9022 12.1387 73.9022 12.6875C73.9022 13.2364 73.7912 13.699 73.5734 14.0972C73.3556 14.4941 73.061 14.8076 72.698 15.0293Z" fill="#13A590"/>
<path d="M84.5193 12.4838C84.207 12.2676 83.8603 12.091 83.4877 11.9596C83.1288 11.8324 82.7698 11.7215 82.4205 11.6271C82.093 11.5367 81.7807 11.4423 81.4902 11.3465C81.2258 11.2589 81.0148 11.1453 80.8641 11.0098C80.7354 10.8948 80.6737 10.7388 80.6737 10.5335C80.6737 10.3091 80.7258 10.1489 80.8285 10.0586C80.9504 9.95049 81.0916 9.88069 81.2587 9.84784C81.4464 9.81089 81.6218 9.79173 81.7793 9.79173C82.1725 9.79173 82.5246 9.86153 82.8246 9.99702C83.1205 10.1311 83.3576 10.3145 83.5329 10.539L83.5562 10.5636C83.7398 10.7333 83.9727 10.8305 84.2494 10.8511C84.533 10.8716 84.7837 10.7963 84.9988 10.6252C85.2961 10.3843 85.4318 10.1038 85.4016 9.79036C85.3756 9.51253 85.2865 9.27028 85.1345 9.06362C84.8755 8.73241 84.5522 8.46142 84.1713 8.25886C83.8001 8.06178 83.4055 7.91534 82.9972 7.82637C81.9519 7.59508 81.0094 7.66488 80.138 8.03578C79.5969 8.26707 79.1489 8.59965 78.8077 9.02666C78.457 9.46463 78.2789 9.99976 78.2789 10.6198C78.2789 11.1604 78.3871 11.6189 78.6009 11.9815C78.8119 12.3415 79.09 12.6344 79.4256 12.852C79.7489 13.0614 80.1093 13.2338 80.4983 13.3652C80.8696 13.4911 81.2423 13.6075 81.6067 13.7142C81.9451 13.8046 82.2561 13.9017 82.5287 14.0016C82.7849 14.0961 82.9931 14.211 83.1466 14.3438C83.2726 14.4533 83.3343 14.5997 83.3343 14.7913C83.3343 15.0295 83.2781 15.2019 83.1671 15.3046C83.0397 15.4223 82.8945 15.4962 82.7232 15.529C82.526 15.5674 82.3424 15.5934 82.193 15.6029C81.6752 15.6029 81.2423 15.5181 80.9039 15.3484C80.5572 15.1759 80.2216 14.9282 79.9051 14.6107C79.675 14.3808 79.4284 14.2535 79.1735 14.2329C78.9201 14.211 78.6831 14.2713 78.4598 14.4109C78.1132 14.6326 77.9309 14.9077 77.9159 15.2293C77.9022 15.5277 77.9666 15.7809 78.109 15.9793L78.1118 15.9834C78.5831 16.6116 79.1845 17.0564 79.8996 17.3041C80.597 17.5464 81.3053 17.6682 82.004 17.6682C82.5684 17.6682 83.1301 17.556 83.6699 17.3343C84.2166 17.1098 84.6783 16.7745 85.044 16.3365C85.4194 15.8876 85.6099 15.3374 85.6099 14.7051C85.6099 14.1659 85.5085 13.7129 85.3071 13.3543C85.1084 13.0012 84.844 12.7083 84.5207 12.4852L84.5193 12.4838Z" fill="#13A590"/>
<path d="M92.1965 15.1374C92.0184 15.1374 91.8568 15.1689 91.7157 15.2332C91.5458 15.3098 91.3238 15.3153 91.1457 15.24C91.0772 15.2113 91.0238 15.1648 90.9827 15.0977C90.9402 15.0279 90.9183 14.9307 90.9183 14.8089V10.3431H91.9376C92.2678 10.3431 92.5486 10.2336 92.7706 10.0174C92.9953 9.79974 93.109 9.52738 93.109 9.20575C93.109 8.88412 92.9953 8.59397 92.7719 8.37089C92.5486 8.1478 92.2678 8.03557 91.9362 8.03557H90.9169V7.13775C90.9169 6.78601 90.8019 6.48628 90.5758 6.24677C90.347 6.00452 90.0497 5.88135 89.6935 5.88135C89.3373 5.88135 89.0387 6.00316 88.7975 6.24267C88.5578 6.48355 88.4358 6.78464 88.4358 7.13775V8.03557H87.8481C87.5179 8.03557 87.2371 8.14506 87.0151 8.36131C86.7905 8.57892 86.6768 8.85128 86.6768 9.1729C86.6768 9.49453 86.7905 9.78468 87.0124 10.0078C87.2357 10.2309 87.5166 10.3445 87.8481 10.3445H88.4358V14.8965C88.4358 15.4905 88.5318 15.9709 88.7194 16.3213C88.9085 16.6744 89.151 16.9413 89.4414 17.1164C89.7237 17.2848 90.0278 17.3929 90.347 17.4367C90.6471 17.4778 90.9265 17.4997 91.1772 17.4997C91.6156 17.4997 92.0308 17.3861 92.4116 17.1616C92.8281 16.9166 93.0391 16.5895 93.0391 16.1912C93.0391 15.8765 92.9555 15.6219 92.7884 15.4344C92.6158 15.24 92.4157 15.1415 92.1952 15.1415L92.1965 15.1374Z" fill="#13A590"/>
<path d="M9.70995 9.18267C9.67844 8.31085 9.00028 7.56221 8.1358 7.4363C6.99732 7.26932 5.97803 8.16715 6.02187 9.33733C6.05475 10.2091 6.73291 10.9578 7.59739 11.0837C8.7345 11.2493 9.75379 10.3529 9.70995 9.18267Z" fill="#13A590"/>
<path d="M14.8044 9.39471C14.8044 5.31072 11.4903 2 7.40218 2C3.31406 2 0 5.31072 0 9.39471C0 11.2451 0.685006 12.9313 1.80842 14.2287H1.80157L3.45106 16.0723V6.51648C3.45106 6.16748 3.57162 5.87049 3.80863 5.63372C4.04565 5.39694 4.34294 5.2765 4.69229 5.2765H8.57217C9.19963 5.2765 9.79559 5.4599 10.3436 5.81985C10.8847 6.17569 11.3286 6.66429 11.6615 7.26923C11.9945 7.87553 12.163 8.55985 12.163 9.30438C12.163 10.0489 11.9945 10.7168 11.6615 11.3231C11.3286 11.928 10.8861 12.418 10.345 12.7793C9.79696 13.1461 9.201 13.3323 8.57217 13.3323H5.81433V18.7124L6.15821 19.0969C6.82266 19.8387 7.9858 19.8401 8.65026 19.0969L12.9206 14.3259H12.9096C14.0851 13.0161 14.8057 11.293 14.8057 9.39608L14.8044 9.39471Z" fill="#13A590"/>
</g>
<defs>
<clipPath id="clip0_2591_7864">
<rect width="93.109" height="21.6538" fill="white"/>
</clipPath>
</defs>
</svg>
