<svg width="160" height="160" viewBox="0 0 160 160" fill="none" xmlns="http://www.w3.org/2000/svg">
<path d="M158.559 80.0547C158.559 88.6414 157.173 96.9081 154.613 104.588C150.613 116.695 143.733 127.521 134.826 136.268C120.693 150.081 101.333 158.561 79.9461 158.561C36.5861 158.561 1.43945 123.415 1.43945 80.0014C1.43945 36.5881 36.5861 1.44141 79.9995 1.44141C123.413 1.44141 158.613 36.6414 158.613 80.0547H158.559Z" fill="#CFEDE8"/>
<path d="M109.759 30.5583V75.4649C109.759 82.2916 104.213 87.785 97.4395 87.785H43.0928L41.2795 89.1716L18.4528 106.612V87.785C11.6261 87.785 6.13281 82.2383 6.13281 75.4649V30.5583C6.13281 23.7316 11.6795 18.2383 18.4528 18.2383H97.3862C104.213 18.2383 109.706 23.7316 109.706 30.5583H109.759Z" fill="#FFD833"/>
<path d="M96.1065 31.5195H18.4531V39.1462H96.1065V31.5195Z" fill="white"/>
<path d="M96.1065 49.1719H18.4531V56.7985H96.1065V49.1719Z" fill="white"/>
<path d="M96.1065 66.8281H18.4531V74.4548H96.1065V66.8281Z" fill="white"/>
<path d="M142.347 66.7188H63.4137C56.5871 66.7188 51.0938 72.2654 51.0938 79.0387V123.945C51.0938 130.772 56.6404 136.265 63.4137 136.265H98.7204L113.334 149.545V136.265H134.827C143.734 127.572 150.614 116.692 154.614 104.585V79.0387C154.614 72.2654 149.12 66.7188 142.294 66.7188H142.347Z" fill="#F8F4DA"/>
<path d="M109.014 145.546C110.507 144.746 111.947 143.946 113.387 143.039V149.492L109.014 145.492V145.546Z" fill="#D3CEC2"/>
<path d="M154.668 79.0408V104.587C150.668 116.694 143.788 127.521 134.881 136.267H122.881C124.428 134.987 125.974 133.601 127.414 132.161C136.321 123.467 143.201 112.587 147.201 100.481C149.761 92.7475 151.148 84.4808 151.148 75.9475C151.148 67.4142 151.094 72.0542 150.934 70.1875C153.228 72.4275 154.668 75.5742 154.668 79.0408Z" fill="#D3CEC2"/>
<path d="M99.3594 91.7329H117.599V84.6929H106.346V76.9062H99.3061V84.6929H98.3994C92.6927 84.6929 88.1061 89.2796 88.1061 94.9863C88.1061 100.693 92.6927 105.28 98.3994 105.28H107.253C109.066 105.28 110.559 106.773 110.559 108.586C110.559 110.4 109.066 111.893 107.253 111.893H88.0527V118.933H99.3061V126.72H106.346V118.933H107.253C112.959 118.933 117.546 114.346 117.546 108.64C117.546 102.933 112.959 98.3462 107.253 98.3462H98.3994C96.5861 98.3462 95.0927 96.8529 95.0927 95.0396C95.0927 93.2263 96.5861 91.7329 98.3994 91.7329H99.3061H99.3594Z" fill="#13A590"/>
</svg>
